<?xml version="1.0" encoding="utf-8"?>
<!-- Generator: Adobe Illustrator 15.0.2, SVG Export Plug-In . SVG Version: 6.00 Build 0)  -->
<!DOCTYPE svg PUBLIC "-//W3C//DTD SVG 1.1//EN" "http://www.w3.org/Graphics/SVG/1.1/DTD/svg11.dtd">
<svg version="1.1" id="Ebene_1" xmlns="http://www.w3.org/2000/svg" xmlns:xlink="http://www.w3.org/1999/xlink" x="0px" y="0px"
	 width="880.456px" height="241.488px" viewBox="0 0 880.456 241.488" enable-background="new 0 0 880.456 241.488"
	 xml:space="preserve">
<g>
	<g>
		<g>
			<rect x="640.548" y="156.704" width="40.839" height="61.295"/>
			<path d="M859.716,88.39c-3.814-8.761-9.576-15.403-17.292-19.926c-7.708-4.523-17.143-6.787-28.279-6.787
				c-8.764,0-17.001,2-24.717,6c-7.714,4-16.104,10.049-22.773,18.143c-4.571-8.094-9.225-14.143-16.366-18.143
				c-7.142-4-15.573-6-25.284-6c-18.285,0-30.358,8.393-43.592,24.486V65.709h-40.864v72.844h40.359
				c0.203-12.199,0.96-23.7,2.873-29.308c2.144-6.285,5.69-11.093,10.64-14.429c4.95-3.331,10.523-5,16.717-5
				c4.967,0,10.232,3.032,12.181,5.533l64.18-0.038c3.874-1.967,8.148-4.736,14.781-4.736c7.715,0,14.233,4.295,17.289,10.385
				c2.635,5.252,2.772,14.097,2.772,29.143v60.746h41.088v-71.031C863.428,105.342,862.475,94.868,859.716,88.39z"/>
		</g>
		<rect x="822.457" y="208.993" width="40.971" height="9.054"/>
		<path d="M732.258,202.133h40.142v-58.176c0-13.685,1.018-23.814,3.031-30.464h-43.882c0.466,5.021,0.709,11.71,0.709,20.18
			V202.133z"/>
	</g>
	<g>
		<polygon points="72.01,49.821 72.01,13.257 30.925,36.685 30.925,49.821 		"/>
		<g>
			<polygon points="31.204,156.598 71.915,156.598 71.915,95.192 101.494,95.192 101.494,65.689 13.034,65.689 13.034,95.28 
				31.204,95.28 			"/>
			<path d="M99.863,188.727c-6.82,3.601-10.496,5.022-14.21,5.022c-2.667,0-7.427,0.065-9.284-1.271
				c-1.857-1.332-3.304-4.022-3.827-6.071c-0.256-0.998-0.4-8.137-0.531-11.597l-41.428,0.151c0.164,8.758,0.563,13.679,1.2,17.153
				c1.048,6.57,2.929,12.967,5.643,16.826c2.715,3.856,6.976,6.997,12.785,9.425c5.808,2.428,12.333,3.986,19.572,3.986
				c11.808,0,24.525-0.972,33.858-4.968L99.863,188.727z"/>
		</g>
	</g>
	<g>
		<rect x="467.586" y="79.342" width="40.917" height="36.472"/>
		<g>
			<path d="M542.095,190.802c-2.031,0.379-7.578,1.854-9.752,1.854c-6.005,0-10.956-1.403-14.857-4.213
				c-3.909-2.806-6.596-6.617-8.075-11.43c-1.476-4.806-0.818-19.143-0.818-40.477v-2.58h-41.177v28.864
				c0,14.289,1.254,26.247,4.879,34.339c3.617,8.097,9.474,14.383,17.567,18.854c8.097,4.478,17.238,6.716,27.429,6.716
				c10.237,0,19.392-3.812,28.05-9.085c8.847-5.395,11.463-10.138,17.715-17.907v22.285l41.071-0.006v-27.215H542.095z"/>
			<path d="M604.126,172.66V79.342h-40.832v51.48c0,21.713-0.996,35.355-2.997,40.929c-0.113,0.313-0.373,0.6-0.498,0.908H604.126z"
				/>
		</g>
	</g>
	<g>
		<path d="M203.935,113.52v105.013h40.744v-73.71c0-14.459,0.713-25.001,2.824-31.303H203.935z"/>
		<g>
			<rect x="294.841" y="174.81" width="40.741" height="43.723"/>
			<path d="M423.185,90.111c-3.81-8.761-9.353-17.549-17.064-22.074c-7.714-4.523-17.143-6.786-28.285-6.786
				c-8.763,0-17,2-24.713,5.999c-7.716,4-15.128,9.616-21.791,17.711c-4.572-8.095-10.171-13.71-17.314-17.711
				c-7.142-4-15.57-5.999-25.284-5.999c-18.285,0-30.865,10.194-44.102,26.289V74.998h-40.61v20.299l55.388,0.016
				c2.984-1.611,7.787-4.389,13.168-4.548c7.364-0.218,12.611,2.232,15.443,4.548c3.601,2.941,4.927,6.921,5.74,11.513
				c0.788,4.449,1.199,13.811,1.199,28.569v21.263h41.086v-10.978c0-14.282-0.426-28.649,1.767-35.269
				c2.189-6.618,5.761-11.643,10.714-15.071c4.951-3.429,10.235-4.8,15.855-4.8c7.714,0,14.477,4.365,18.191,10.078
				c2.76,4.382,3.222,16.029,3.222,31.075v70.311l41.018,0.13v-80.596C426.812,107.063,425.945,96.588,423.185,90.111z"/>
		</g>
	</g>
	<g>
		<rect x="126.599" y="15.729" width="40.911" height="29.37"/>
		<rect x="126.599" y="65.796" width="40.911" height="136.337"/>
	</g>
</g>
</svg>
